ISO-10303-21;
HEADER;
/* Generated by software containing ST-Developer
 * from STEP Tools, Inc. (www.steptools.com) 
 */
/* OPTION: using custom renumber hook */

FILE_DESCRIPTION(
/* description */ ('STEP AP242 Edition 2',
'CAx-IF Rec.Pracs.---Representation and Presentation of Product Manufa
cturing Information (PMI)---4.0---2014-10-13',
'CAx-IF Rec.Pracs.---3D Tessellated Geometry---0.4---2014-09-14','2;1',
'CAx-IF Rec.Pracs.---User Defined Attributes---1.5---2016-08-15'),
/* implementation_level */ '2;1');

FILE_NAME(
/* name */ '69879a28a73a7815a7671c2e',
/* time_stamp */ '2026-02-07T20:01:45Z',
/* author */ (''),
/* organization */ (''),
/* preprocessor_version */ 'ST-DEVELOPER v20',
/* originating_system */ 'ONSHAPE BY PTC INC, 1.210',
/* authorisation */ '  ');

FILE_SCHEMA (('AP242_MANAGED_MODEL_BASED_3D_ENGINEERING_MIM_LF { 1 0 10303 442 3 1 4 }'));
ENDSEC;

DATA;
#10=CONTEXT_DEPENDENT_SHAPE_REPRESENTATION(#14,#591);
#11=CONTEXT_DEPENDENT_SHAPE_REPRESENTATION(#15,#593);
#12=NEXT_ASSEMBLY_USAGE_OCCURRENCE('NAUO1','Rotor','Rotor',#594,#595,'');
#13=NEXT_ASSEMBLY_USAGE_OCCURRENCE('NAUO2','Stator','Stator',#594,#596,
'');
#14=(
REPRESENTATION_RELATIONSHIP(' ',' ',#331,#330)
REPRESENTATION_RELATIONSHIP_WITH_TRANSFORMATION(#16)
SHAPE_REPRESENTATION_RELATIONSHIP()
);
#15=(
REPRESENTATION_RELATIONSHIP(' ',' ',#332,#330)
REPRESENTATION_RELATIONSHIP_WITH_TRANSFORMATION(#17)
SHAPE_REPRESENTATION_RELATIONSHIP()
);
#16=ITEM_DEFINED_TRANSFORMATION(' ',' ',#333,#362);
#17=ITEM_DEFINED_TRANSFORMATION(' ',' ',#333,#387);
#18=SHAPE_REPRESENTATION_RELATIONSHIP('','',#331,#20);
#19=SHAPE_REPRESENTATION_RELATIONSHIP('','',#332,#21);
#20=ADVANCED_BREP_SHAPE_REPRESENTATION('',(#325),#581);
#21=ADVANCED_BREP_SHAPE_REPRESENTATION('',(#326),#582);
#22=PLANE('',#340);
#23=PLANE('',#345);
#24=PLANE('',#349);
#25=PLANE('',#352);
#26=PLANE('',#355);
#27=PLANE('',#358);
#28=PLANE('',#361);
#29=PLANE('',#369);
#30=PLANE('',#370);
#31=PLANE('',#377);
#32=PLANE('',#380);
#33=PLANE('',#383);
#34=PLANE('',#386);
#35=ORIENTED_EDGE('',*,*,#87,.F.);
#36=ORIENTED_EDGE('',*,*,#88,.T.);
#37=ORIENTED_EDGE('',*,*,#89,.T.);
#38=ORIENTED_EDGE('',*,*,#90,.F.);
#39=ORIENTED_EDGE('',*,*,#91,.F.);
#40=ORIENTED_EDGE('',*,*,#92,.F.);
#41=ORIENTED_EDGE('',*,*,#93,.F.);
#42=ORIENTED_EDGE('',*,*,#94,.F.);
#43=ORIENTED_EDGE('',*,*,#87,.T.);
#44=ORIENTED_EDGE('',*,*,#89,.F.);
#45=ORIENTED_EDGE('',*,*,#95,.T.);
#46=ORIENTED_EDGE('',*,*,#88,.F.);
#47=ORIENTED_EDGE('',*,*,#96,.T.);
#48=ORIENTED_EDGE('',*,*,#95,.F.);
#49=ORIENTED_EDGE('',*,*,#90,.T.);
#50=ORIENTED_EDGE('',*,*,#96,.F.);
#51=ORIENTED_EDGE('',*,*,#97,.F.);
#52=ORIENTED_EDGE('',*,*,#94,.T.);
#53=ORIENTED_EDGE('',*,*,#97,.T.);
#54=ORIENTED_EDGE('',*,*,#98,.F.);
#55=ORIENTED_EDGE('',*,*,#93,.T.);
#56=ORIENTED_EDGE('',*,*,#98,.T.);
#57=ORIENTED_EDGE('',*,*,#99,.F.);
#58=ORIENTED_EDGE('',*,*,#92,.T.);
#59=ORIENTED_EDGE('',*,*,#99,.T.);
#60=ORIENTED_EDGE('',*,*,#100,.F.);
#61=ORIENTED_EDGE('',*,*,#91,.T.);
#62=ORIENTED_EDGE('',*,*,#100,.T.);
#63=ORIENTED_EDGE('',*,*,#101,.T.);
#64=ORIENTED_EDGE('',*,*,#102,.F.);
#65=ORIENTED_EDGE('',*,*,#103,.F.);
#66=ORIENTED_EDGE('',*,*,#104,.T.);
#67=ORIENTED_EDGE('',*,*,#101,.F.);
#68=ORIENTED_EDGE('',*,*,#103,.T.);
#69=ORIENTED_EDGE('',*,*,#105,.F.);
#70=ORIENTED_EDGE('',*,*,#106,.F.);
#71=ORIENTED_EDGE('',*,*,#107,.F.);
#72=ORIENTED_EDGE('',*,*,#108,.F.);
#73=ORIENTED_EDGE('',*,*,#102,.T.);
#74=ORIENTED_EDGE('',*,*,#104,.F.);
#75=ORIENTED_EDGE('',*,*,#109,.F.);
#76=ORIENTED_EDGE('',*,*,#108,.T.);
#77=ORIENTED_EDGE('',*,*,#109,.T.);
#78=ORIENTED_EDGE('',*,*,#110,.F.);
#79=ORIENTED_EDGE('',*,*,#107,.T.);
#80=ORIENTED_EDGE('',*,*,#110,.T.);
#81=ORIENTED_EDGE('',*,*,#111,.F.);
#82=ORIENTED_EDGE('',*,*,#106,.T.);
#83=ORIENTED_EDGE('',*,*,#111,.T.);
#84=ORIENTED_EDGE('',*,*,#112,.F.);
#85=ORIENTED_EDGE('',*,*,#105,.T.);
#86=ORIENTED_EDGE('',*,*,#112,.T.);
#87=EDGE_CURVE('',#113,#113,#139,.T.);
#88=EDGE_CURVE('',#114,#114,#140,.T.);
#89=EDGE_CURVE('',#115,#115,#141,.T.);
#90=EDGE_CURVE('',#116,#116,#142,.T.);
#91=EDGE_CURVE('',#117,#117,#143,.T.);
#92=EDGE_CURVE('',#118,#118,#144,.T.);
#93=EDGE_CURVE('',#119,#119,#145,.T.);
#94=EDGE_CURVE('',#120,#120,#146,.T.);
#95=EDGE_CURVE('',#121,#121,#147,.T.);
#96=EDGE_CURVE('',#122,#122,#148,.T.);
#97=EDGE_CURVE('',#123,#123,#149,.T.);
#98=EDGE_CURVE('',#124,#124,#150,.T.);
#99=EDGE_CURVE('',#125,#125,#151,.T.);
#100=EDGE_CURVE('',#126,#126,#152,.T.);
#101=EDGE_CURVE('',#127,#127,#153,.T.);
#102=EDGE_CURVE('',#128,#128,#154,.T.);
#103=EDGE_CURVE('',#129,#129,#155,.T.);
#104=EDGE_CURVE('',#130,#130,#156,.T.);
#105=EDGE_CURVE('',#131,#131,#157,.T.);
#106=EDGE_CURVE('',#132,#132,#158,.T.);
#107=EDGE_CURVE('',#133,#133,#159,.T.);
#108=EDGE_CURVE('',#134,#134,#160,.T.);
#109=EDGE_CURVE('',#135,#135,#161,.T.);
#110=EDGE_CURVE('',#136,#136,#162,.T.);
#111=EDGE_CURVE('',#137,#137,#163,.T.);
#112=EDGE_CURVE('',#138,#138,#164,.T.);
#113=VERTEX_POINT('',#501);
#114=VERTEX_POINT('',#503);
#115=VERTEX_POINT('',#506);
#116=VERTEX_POINT('',#508);
#117=VERTEX_POINT('',#511);
#118=VERTEX_POINT('',#513);
#119=VERTEX_POINT('',#515);
#120=VERTEX_POINT('',#517);
#121=VERTEX_POINT('',#520);
#122=VERTEX_POINT('',#523);
#123=VERTEX_POINT('',#527);
#124=VERTEX_POINT('',#531);
#125=VERTEX_POINT('',#535);
#126=VERTEX_POINT('',#539);
#127=VERTEX_POINT('',#544);
#128=VERTEX_POINT('',#546);
#129=VERTEX_POINT('',#549);
#130=VERTEX_POINT('',#551);
#131=VERTEX_POINT('',#555);
#132=VERTEX_POINT('',#557);
#133=VERTEX_POINT('',#559);
#134=VERTEX_POINT('',#561);
#135=VERTEX_POINT('',#564);
#136=VERTEX_POINT('',#568);
#137=VERTEX_POINT('',#572);
#138=VERTEX_POINT('',#576);
#139=CIRCLE('',#335,0.014);
#140=CIRCLE('',#336,0.014);
#141=CIRCLE('',#338,0.0017);
#142=CIRCLE('',#339,0.0017);
#143=CIRCLE('',#341,0.001);
#144=CIRCLE('',#342,0.001);
#145=CIRCLE('',#343,0.001);
#146=CIRCLE('',#344,0.001);
#147=CIRCLE('',#346,0.00275);
#148=CIRCLE('',#348,0.00275);
#149=CIRCLE('',#351,0.001);
#150=CIRCLE('',#354,0.001);
#151=CIRCLE('',#357,0.001);
#152=CIRCLE('',#360,0.001);
#153=CIRCLE('',#364,0.0045);
#154=CIRCLE('',#365,0.0045);
#155=CIRCLE('',#367,0.014);
#156=CIRCLE('',#368,0.014);
#157=CIRCLE('',#371,0.001);
#158=CIRCLE('',#372,0.001);
#159=CIRCLE('',#373,0.001);
#160=CIRCLE('',#374,0.001);
#161=CIRCLE('',#376,0.001);
#162=CIRCLE('',#379,0.001);
#163=CIRCLE('',#382,0.001);
#164=CIRCLE('',#385,0.001);
#165=EDGE_LOOP('',(#35));
#166=EDGE_LOOP('',(#36));
#167=EDGE_LOOP('',(#37));
#168=EDGE_LOOP('',(#38));
#169=EDGE_LOOP('',(#39));
#170=EDGE_LOOP('',(#40));
#171=EDGE_LOOP('',(#41));
#172=EDGE_LOOP('',(#42));
#173=EDGE_LOOP('',(#43));
#174=EDGE_LOOP('',(#44));
#175=EDGE_LOOP('',(#45));
#176=EDGE_LOOP('',(#46));
#177=EDGE_LOOP('',(#47));
#178=EDGE_LOOP('',(#48));
#179=EDGE_LOOP('',(#49));
#180=EDGE_LOOP('',(#50));
#181=EDGE_LOOP('',(#51));
#182=EDGE_LOOP('',(#52));
#183=EDGE_LOOP('',(#53));
#184=EDGE_LOOP('',(#54));
#185=EDGE_LOOP('',(#55));
#186=EDGE_LOOP('',(#56));
#187=EDGE_LOOP('',(#57));
#188=EDGE_LOOP('',(#58));
#189=EDGE_LOOP('',(#59));
#190=EDGE_LOOP('',(#60));
#191=EDGE_LOOP('',(#61));
#192=EDGE_LOOP('',(#62));
#193=EDGE_LOOP('',(#63));
#194=EDGE_LOOP('',(#64));
#195=EDGE_LOOP('',(#65));
#196=EDGE_LOOP('',(#66));
#197=EDGE_LOOP('',(#67));
#198=EDGE_LOOP('',(#68));
#199=EDGE_LOOP('',(#69));
#200=EDGE_LOOP('',(#70));
#201=EDGE_LOOP('',(#71));
#202=EDGE_LOOP('',(#72));
#203=EDGE_LOOP('',(#73));
#204=EDGE_LOOP('',(#74));
#205=EDGE_LOOP('',(#75));
#206=EDGE_LOOP('',(#76));
#207=EDGE_LOOP('',(#77));
#208=EDGE_LOOP('',(#78));
#209=EDGE_LOOP('',(#79));
#210=EDGE_LOOP('',(#80));
#211=EDGE_LOOP('',(#81));
#212=EDGE_LOOP('',(#82));
#213=EDGE_LOOP('',(#83));
#214=EDGE_LOOP('',(#84));
#215=EDGE_LOOP('',(#85));
#216=EDGE_LOOP('',(#86));
#217=FACE_BOUND('',#165,.T.);
#218=FACE_BOUND('',#166,.T.);
#219=FACE_BOUND('',#167,.T.);
#220=FACE_BOUND('',#168,.T.);
#221=FACE_BOUND('',#169,.T.);
#222=FACE_BOUND('',#170,.T.);
#223=FACE_BOUND('',#171,.T.);
#224=FACE_BOUND('',#172,.T.);
#225=FACE_BOUND('',#173,.T.);
#226=FACE_BOUND('',#174,.T.);
#227=FACE_BOUND('',#175,.T.);
#228=FACE_BOUND('',#176,.T.);
#229=FACE_BOUND('',#177,.T.);
#230=FACE_BOUND('',#178,.T.);
#231=FACE_BOUND('',#179,.T.);
#232=FACE_BOUND('',#180,.T.);
#233=FACE_BOUND('',#181,.T.);
#234=FACE_BOUND('',#182,.T.);
#235=FACE_BOUND('',#183,.T.);
#236=FACE_BOUND('',#184,.T.);
#237=FACE_BOUND('',#185,.T.);
#238=FACE_BOUND('',#186,.T.);
#239=FACE_BOUND('',#187,.T.);
#240=FACE_BOUND('',#188,.T.);
#241=FACE_BOUND('',#189,.T.);
#242=FACE_BOUND('',#190,.T.);
#243=FACE_BOUND('',#191,.T.);
#244=FACE_BOUND('',#192,.T.);
#245=FACE_BOUND('',#193,.T.);
#246=FACE_BOUND('',#194,.T.);
#247=FACE_BOUND('',#195,.T.);
#248=FACE_BOUND('',#196,.T.);
#249=FACE_BOUND('',#197,.T.);
#250=FACE_BOUND('',#198,.T.);
#251=FACE_BOUND('',#199,.T.);
#252=FACE_BOUND('',#200,.T.);
#253=FACE_BOUND('',#201,.T.);
#254=FACE_BOUND('',#202,.T.);
#255=FACE_BOUND('',#203,.T.);
#256=FACE_BOUND('',#204,.T.);
#257=FACE_BOUND('',#205,.T.);
#258=FACE_BOUND('',#206,.T.);
#259=FACE_BOUND('',#207,.T.);
#260=FACE_BOUND('',#208,.T.);
#261=FACE_BOUND('',#209,.T.);
#262=FACE_BOUND('',#210,.T.);
#263=FACE_BOUND('',#211,.T.);
#264=FACE_BOUND('',#212,.T.);
#265=FACE_BOUND('',#213,.T.);
#266=FACE_BOUND('',#214,.T.);
#267=FACE_BOUND('',#215,.T.);
#268=FACE_BOUND('',#216,.T.);
#269=CYLINDRICAL_SURFACE('',#334,0.014);
#270=CYLINDRICAL_SURFACE('',#337,0.0017);
#271=CYLINDRICAL_SURFACE('',#347,0.00275);
#272=CYLINDRICAL_SURFACE('',#350,0.001);
#273=CYLINDRICAL_SURFACE('',#353,0.001);
#274=CYLINDRICAL_SURFACE('',#356,0.001);
#275=CYLINDRICAL_SURFACE('',#359,0.001);
#276=CYLINDRICAL_SURFACE('',#363,0.0045);
#277=CYLINDRICAL_SURFACE('',#366,0.014);
#278=CYLINDRICAL_SURFACE('',#375,0.001);
#279=CYLINDRICAL_SURFACE('',#378,0.001);
#280=CYLINDRICAL_SURFACE('',#381,0.001);
#281=CYLINDRICAL_SURFACE('',#384,0.001);
#282=ADVANCED_FACE('',(#217,#218),#269,.T.);
#283=ADVANCED_FACE('',(#219,#220),#270,.F.);
#284=ADVANCED_FACE('',(#221,#222,#223,#224,#225,#226),#22,.T.);
#285=ADVANCED_FACE('',(#227,#228),#23,.F.);
#286=ADVANCED_FACE('',(#229,#230),#271,.T.);
#287=ADVANCED_FACE('',(#231,#232),#24,.F.);
#288=ADVANCED_FACE('',(#233,#234),#272,.F.);
#289=ADVANCED_FACE('',(#235),#25,.T.);
#290=ADVANCED_FACE('',(#236,#237),#273,.F.);
#291=ADVANCED_FACE('',(#238),#26,.T.);
#292=ADVANCED_FACE('',(#239,#240),#274,.F.);
#293=ADVANCED_FACE('',(#241),#27,.T.);
#294=ADVANCED_FACE('',(#242,#243),#275,.F.);
#295=ADVANCED_FACE('',(#244),#28,.T.);
#296=ADVANCED_FACE('',(#245,#246),#276,.F.);
#297=ADVANCED_FACE('',(#247,#248),#277,.T.);
#298=ADVANCED_FACE('',(#249,#250),#29,.T.);
#299=ADVANCED_FACE('',(#251,#252,#253,#254,#255,#256),#30,.F.);
#300=ADVANCED_FACE('',(#257,#258),#278,.F.);
#301=ADVANCED_FACE('',(#259),#31,.T.);
#302=ADVANCED_FACE('',(#260,#261),#279,.F.);
#303=ADVANCED_FACE('',(#262),#32,.T.);
#304=ADVANCED_FACE('',(#263,#264),#280,.F.);
#305=ADVANCED_FACE('',(#265),#33,.T.);
#306=ADVANCED_FACE('',(#266,#267),#281,.F.);
#307=ADVANCED_FACE('',(#268),#34,.T.);
#308=CLOSED_SHELL('',(#282,#283,#284,#285,#286,#287,#288,#289,#290,#291,
#292,#293,#294,#295));
#309=CLOSED_SHELL('',(#296,#297,#298,#299,#300,#301,#302,#303,#304,#305,
#306,#307));
#310=STYLED_ITEM('',(#312),#325);
#311=STYLED_ITEM('',(#313),#326);
#312=PRESENTATION_STYLE_ASSIGNMENT((#314));
#313=PRESENTATION_STYLE_ASSIGNMENT((#315));
#314=SURFACE_STYLE_USAGE(.BOTH.,#316);
#315=SURFACE_STYLE_USAGE(.BOTH.,#317);
#316=SURFACE_SIDE_STYLE('',(#318));
#317=SURFACE_SIDE_STYLE('',(#319));
#318=SURFACE_STYLE_FILL_AREA(#320);
#319=SURFACE_STYLE_FILL_AREA(#321);
#320=FILL_AREA_STYLE('',(#322));
#321=FILL_AREA_STYLE('',(#323));
#322=FILL_AREA_STYLE_COLOUR('',#324);
#323=FILL_AREA_STYLE_COLOUR('',#324);
#324=COLOUR_RGB('',0.262745098039216,0.282352941176471,0.301960784313725);
#325=MANIFOLD_SOLID_BREP('Rotor',#308);
#326=MANIFOLD_SOLID_BREP('Stator',#309);
#327=SHAPE_DEFINITION_REPRESENTATION(#589,#330);
#328=SHAPE_DEFINITION_REPRESENTATION(#590,#331);
#329=SHAPE_DEFINITION_REPRESENTATION(#592,#332);
#330=SHAPE_REPRESENTATION('Assembly 1',(#333,#362,#387),#580);
#331=SHAPE_REPRESENTATION('Rotor',(#333),#581);
#332=SHAPE_REPRESENTATION('Stator',(#333),#582);
#333=AXIS2_PLACEMENT_3D('',#498,#388,#389);
#334=AXIS2_PLACEMENT_3D('',#499,#390,#391);
#335=AXIS2_PLACEMENT_3D('',#500,#392,#393);
#336=AXIS2_PLACEMENT_3D('',#502,#394,#395);
#337=AXIS2_PLACEMENT_3D('',#504,#396,#397);
#338=AXIS2_PLACEMENT_3D('',#505,#398,#399);
#339=AXIS2_PLACEMENT_3D('',#507,#400,#401);
#340=AXIS2_PLACEMENT_3D('',#509,#402,#403);
#341=AXIS2_PLACEMENT_3D('',#510,#404,#405);
#342=AXIS2_PLACEMENT_3D('',#512,#406,#407);
#343=AXIS2_PLACEMENT_3D('',#514,#408,#409);
#344=AXIS2_PLACEMENT_3D('',#516,#410,#411);
#345=AXIS2_PLACEMENT_3D('',#518,#412,#413);
#346=AXIS2_PLACEMENT_3D('',#519,#414,#415);
#347=AXIS2_PLACEMENT_3D('',#521,#416,#417);
#348=AXIS2_PLACEMENT_3D('',#522,#418,#419);
#349=AXIS2_PLACEMENT_3D('',#524,#420,#421);
#350=AXIS2_PLACEMENT_3D('',#525,#422,#423);
#351=AXIS2_PLACEMENT_3D('',#526,#424,#425);
#352=AXIS2_PLACEMENT_3D('',#528,#426,#427);
#353=AXIS2_PLACEMENT_3D('',#529,#428,#429);
#354=AXIS2_PLACEMENT_3D('',#530,#430,#431);
#355=AXIS2_PLACEMENT_3D('',#532,#432,#433);
#356=AXIS2_PLACEMENT_3D('',#533,#434,#435);
#357=AXIS2_PLACEMENT_3D('',#534,#436,#437);
#358=AXIS2_PLACEMENT_3D('',#536,#438,#439);
#359=AXIS2_PLACEMENT_3D('',#537,#440,#441);
#360=AXIS2_PLACEMENT_3D('',#538,#442,#443);
#361=AXIS2_PLACEMENT_3D('',#540,#444,#445);
#362=AXIS2_PLACEMENT_3D('',#541,#446,#447);
#363=AXIS2_PLACEMENT_3D('',#542,#448,#449);
#364=AXIS2_PLACEMENT_3D('',#543,#450,#451);
#365=AXIS2_PLACEMENT_3D('',#545,#452,#453);
#366=AXIS2_PLACEMENT_3D('',#547,#454,#455);
#367=AXIS2_PLACEMENT_3D('',#548,#456,#457);
#368=AXIS2_PLACEMENT_3D('',#550,#458,#459);
#369=AXIS2_PLACEMENT_3D('',#552,#460,#461);
#370=AXIS2_PLACEMENT_3D('',#553,#462,#463);
#371=AXIS2_PLACEMENT_3D('',#554,#464,#465);
#372=AXIS2_PLACEMENT_3D('',#556,#466,#467);
#373=AXIS2_PLACEMENT_3D('',#558,#468,#469);
#374=AXIS2_PLACEMENT_3D('',#560,#470,#471);
#375=AXIS2_PLACEMENT_3D('',#562,#472,#473);
#376=AXIS2_PLACEMENT_3D('',#563,#474,#475);
#377=AXIS2_PLACEMENT_3D('',#565,#476,#477);
#378=AXIS2_PLACEMENT_3D('',#566,#478,#479);
#379=AXIS2_PLACEMENT_3D('',#567,#480,#481);
#380=AXIS2_PLACEMENT_3D('',#569,#482,#483);
#381=AXIS2_PLACEMENT_3D('',#570,#484,#485);
#382=AXIS2_PLACEMENT_3D('',#571,#486,#487);
#383=AXIS2_PLACEMENT_3D('',#573,#488,#489);
#384=AXIS2_PLACEMENT_3D('',#574,#490,#491);
#385=AXIS2_PLACEMENT_3D('',#575,#492,#493);
#386=AXIS2_PLACEMENT_3D('',#577,#494,#495);
#387=AXIS2_PLACEMENT_3D('',#578,#496,#497);
#388=DIRECTION('',(0.,0.,1.));
#389=DIRECTION('',(1.,0.,0.));
#390=DIRECTION('',(0.,0.,-1.));
#391=DIRECTION('',(-1.,0.,0.));
#392=DIRECTION('',(0.,0.,1.));
#393=DIRECTION('',(1.,0.,0.));
#394=DIRECTION('',(0.,0.,1.));
#395=DIRECTION('',(1.,0.,0.));
#396=DIRECTION('',(0.,0.,-1.));
#397=DIRECTION('',(-1.,0.,0.));
#398=DIRECTION('',(0.,0.,1.));
#399=DIRECTION('',(1.,0.,0.));
#400=DIRECTION('',(0.,0.,1.));
#401=DIRECTION('',(1.,0.,0.));
#402=DIRECTION('',(0.,0.,1.));
#403=DIRECTION('',(1.,0.,0.));
#404=DIRECTION('',(0.,0.,1.));
#405=DIRECTION('',(1.,0.,0.));
#406=DIRECTION('',(0.,0.,1.));
#407=DIRECTION('',(1.,0.,0.));
#408=DIRECTION('',(0.,0.,1.));
#409=DIRECTION('',(1.,0.,0.));
#410=DIRECTION('',(0.,0.,1.));
#411=DIRECTION('',(1.,0.,0.));
#412=DIRECTION('',(0.,0.,1.));
#413=DIRECTION('',(1.,0.,0.));
#414=DIRECTION('',(0.,0.,1.));
#415=DIRECTION('',(1.,0.,0.));
#416=DIRECTION('',(0.,0.,1.));
#417=DIRECTION('',(1.,0.,0.));
#418=DIRECTION('',(0.,0.,1.));
#419=DIRECTION('',(1.,0.,0.));
#420=DIRECTION('',(0.,0.,1.));
#421=DIRECTION('',(1.,0.,0.));
#422=DIRECTION('',(0.,0.,1.));
#423=DIRECTION('',(1.,0.,0.));
#424=DIRECTION('',(0.,0.,1.));
#425=DIRECTION('',(1.,0.,0.));
#426=DIRECTION('',(0.,0.,1.));
#427=DIRECTION('',(1.,0.,0.));
#428=DIRECTION('',(0.,0.,1.));
#429=DIRECTION('',(1.,0.,0.));
#430=DIRECTION('',(0.,0.,1.));
#431=DIRECTION('',(1.,0.,0.));
#432=DIRECTION('',(0.,0.,1.));
#433=DIRECTION('',(1.,0.,0.));
#434=DIRECTION('',(0.,0.,1.));
#435=DIRECTION('',(1.,0.,0.));
#436=DIRECTION('',(0.,0.,1.));
#437=DIRECTION('',(1.,0.,0.));
#438=DIRECTION('',(0.,0.,1.));
#439=DIRECTION('',(1.,0.,0.));
#440=DIRECTION('',(0.,0.,1.));
#441=DIRECTION('',(1.,0.,0.));
#442=DIRECTION('',(0.,0.,1.));
#443=DIRECTION('',(1.,0.,0.));
#444=DIRECTION('',(0.,0.,1.));
#445=DIRECTION('',(1.,0.,0.));
#446=DIRECTION('',(0.,0.,1.));
#447=DIRECTION('',(1.,0.,0.));
#448=DIRECTION('',(0.,0.,-1.));
#449=DIRECTION('',(-1.,0.,0.));
#450=DIRECTION('',(0.,0.,1.));
#451=DIRECTION('',(1.,0.,0.));
#452=DIRECTION('',(0.,0.,1.));
#453=DIRECTION('',(1.,0.,0.));
#454=DIRECTION('',(0.,0.,-1.));
#455=DIRECTION('',(-1.,0.,0.));
#456=DIRECTION('',(0.,0.,1.));
#457=DIRECTION('',(1.,0.,0.));
#458=DIRECTION('',(0.,0.,1.));
#459=DIRECTION('',(1.,0.,0.));
#460=DIRECTION('',(0.,0.,1.));
#461=DIRECTION('',(1.,0.,0.));
#462=DIRECTION('',(0.,0.,1.));
#463=DIRECTION('',(1.,0.,0.));
#464=DIRECTION('',(0.,0.,-1.));
#465=DIRECTION('',(-1.,0.,0.));
#466=DIRECTION('',(0.,0.,-1.));
#467=DIRECTION('',(-1.,0.,0.));
#468=DIRECTION('',(0.,0.,-1.));
#469=DIRECTION('',(-1.,0.,0.));
#470=DIRECTION('',(0.,0.,-1.));
#471=DIRECTION('',(-1.,0.,0.));
#472=DIRECTION('',(0.,0.,-1.));
#473=DIRECTION('',(-1.,0.,0.));
#474=DIRECTION('',(0.,0.,-1.));
#475=DIRECTION('',(-1.,0.,0.));
#476=DIRECTION('',(0.,0.,-1.));
#477=DIRECTION('',(1.,0.,0.));
#478=DIRECTION('',(0.,0.,-1.));
#479=DIRECTION('',(-1.,0.,0.));
#480=DIRECTION('',(0.,0.,-1.));
#481=DIRECTION('',(-1.,0.,0.));
#482=DIRECTION('',(0.,0.,-1.));
#483=DIRECTION('',(1.,0.,0.));
#484=DIRECTION('',(0.,0.,-1.));
#485=DIRECTION('',(-1.,0.,0.));
#486=DIRECTION('',(0.,0.,-1.));
#487=DIRECTION('',(-1.,0.,0.));
#488=DIRECTION('',(0.,0.,-1.));
#489=DIRECTION('',(1.,0.,0.));
#490=DIRECTION('',(0.,0.,-1.));
#491=DIRECTION('',(-1.,0.,0.));
#492=DIRECTION('',(0.,0.,-1.));
#493=DIRECTION('',(-1.,0.,0.));
#494=DIRECTION('',(0.,0.,-1.));
#495=DIRECTION('',(1.,0.,0.));
#496=DIRECTION('',(0.,0.,1.));
#497=DIRECTION('',(1.,0.,0.));
#498=CARTESIAN_POINT('',(0.,0.,0.));
#499=CARTESIAN_POINT('',(0.,8.57252759403147E-19,0.011));
#500=CARTESIAN_POINT('',(0.,8.57252759403147E-19,0.011));
#501=CARTESIAN_POINT('',(0.014,8.57252759403147E-19,0.011));
#502=CARTESIAN_POINT('',(0.,8.57252759403147E-19,0.));
#503=CARTESIAN_POINT('',(0.014,8.57252759403147E-19,0.));
#504=CARTESIAN_POINT('',(0.,1.04094977927525E-19,0.011));
#505=CARTESIAN_POINT('',(0.,1.04094977927525E-19,0.011));
#506=CARTESIAN_POINT('',(0.0017,1.04094977927525E-19,0.011));
#507=CARTESIAN_POINT('',(0.,1.04094977927525E-19,-0.004));
#508=CARTESIAN_POINT('',(0.0017,1.04094977927525E-19,-0.004));
#509=CARTESIAN_POINT('',(0.,0.,0.011));
#510=CARTESIAN_POINT('',(-0.00425,-0.00425,0.011));
#511=CARTESIAN_POINT('',(-0.00325,-0.00425,0.011));
#512=CARTESIAN_POINT('',(0.00425,-0.00425,0.011));
#513=CARTESIAN_POINT('',(0.00525,-0.00425,0.011));
#514=CARTESIAN_POINT('',(0.00425,0.00425,0.011));
#515=CARTESIAN_POINT('',(0.00525,0.00425,0.011));
#516=CARTESIAN_POINT('',(-0.00425,0.00425,0.011));
#517=CARTESIAN_POINT('',(-0.00325,0.00425,0.011));
#518=CARTESIAN_POINT('',(0.,0.,0.));
#519=CARTESIAN_POINT('',(0.,1.68388934882761E-19,0.));
#520=CARTESIAN_POINT('',(0.00275,1.68388934882761E-19,0.));
#521=CARTESIAN_POINT('',(0.,1.68388934882761E-19,-0.004));
#522=CARTESIAN_POINT('',(0.,1.68388934882761E-19,-0.004));
#523=CARTESIAN_POINT('',(0.00275,1.68388934882761E-19,-0.004));
#524=CARTESIAN_POINT('',(0.,0.,-0.004));
#525=CARTESIAN_POINT('',(-0.00425,0.00425,0.008));
#526=CARTESIAN_POINT('',(-0.00425,0.00425,0.008));
#527=CARTESIAN_POINT('',(-0.00325,0.00425,0.008));
#528=CARTESIAN_POINT('',(0.,0.,0.008));
#529=CARTESIAN_POINT('',(0.00425,0.00425,0.008));
#530=CARTESIAN_POINT('',(0.00425,0.00425,0.008));
#531=CARTESIAN_POINT('',(0.00525,0.00425,0.008));
#532=CARTESIAN_POINT('',(0.,0.,0.008));
#533=CARTESIAN_POINT('',(0.00425,-0.00425,0.008));
#534=CARTESIAN_POINT('',(0.00425,-0.00425,0.008));
#535=CARTESIAN_POINT('',(0.00525,-0.00425,0.008));
#536=CARTESIAN_POINT('',(0.,0.,0.008));
#537=CARTESIAN_POINT('',(-0.00425,-0.00425,0.008));
#538=CARTESIAN_POINT('',(-0.00425,-0.00425,0.008));
#539=CARTESIAN_POINT('',(-0.00325,-0.00425,0.008));
#540=CARTESIAN_POINT('',(0.,0.,0.008));
#541=CARTESIAN_POINT('',(0.,0.,0.004));
#542=CARTESIAN_POINT('',(0.,2.75545529808154E-19,0.004));
#543=CARTESIAN_POINT('',(0.,2.75545529808154E-19,0.004));
#544=CARTESIAN_POINT('',(0.0045,2.75545529808154E-19,0.004));
#545=CARTESIAN_POINT('',(0.,2.75545529808154E-19,0.));
#546=CARTESIAN_POINT('',(0.0045,2.75545529808154E-19,0.));
#547=CARTESIAN_POINT('',(0.,8.57252759403147E-19,0.004));
#548=CARTESIAN_POINT('',(0.,8.57252759403147E-19,0.004));
#549=CARTESIAN_POINT('',(0.014,8.57252759403147E-19,0.004));
#550=CARTESIAN_POINT('',(0.,8.57252759403147E-19,0.));
#551=CARTESIAN_POINT('',(0.014,8.57252759403147E-19,0.));
#552=CARTESIAN_POINT('',(0.,0.,0.004));
#553=CARTESIAN_POINT('',(0.,0.,0.));
#554=CARTESIAN_POINT('',(-0.00425,0.00425,0.));
#555=CARTESIAN_POINT('',(-0.00525,0.00425,0.));
#556=CARTESIAN_POINT('',(0.00425,0.00425,0.));
#557=CARTESIAN_POINT('',(0.00325,0.00425,0.));
#558=CARTESIAN_POINT('',(0.00425,-0.00425,0.));
#559=CARTESIAN_POINT('',(0.00325,-0.00425,0.));
#560=CARTESIAN_POINT('',(-0.00425,-0.00425,0.));
#561=CARTESIAN_POINT('',(-0.00525,-0.00425,0.));
#562=CARTESIAN_POINT('',(-0.00425,-0.00425,0.003));
#563=CARTESIAN_POINT('',(-0.00425,-0.00425,0.003));
#564=CARTESIAN_POINT('',(-0.00525,-0.00425,0.003));
#565=CARTESIAN_POINT('',(0.,0.,0.003));
#566=CARTESIAN_POINT('',(0.00425,-0.00425,0.003));
#567=CARTESIAN_POINT('',(0.00425,-0.00425,0.003));
#568=CARTESIAN_POINT('',(0.00325,-0.00425,0.003));
#569=CARTESIAN_POINT('',(0.,0.,0.003));
#570=CARTESIAN_POINT('',(0.00425,0.00425,0.003));
#571=CARTESIAN_POINT('',(0.00425,0.00425,0.003));
#572=CARTESIAN_POINT('',(0.00325,0.00425,0.003));
#573=CARTESIAN_POINT('',(0.,0.,0.003));
#574=CARTESIAN_POINT('',(-0.00425,0.00425,0.003));
#575=CARTESIAN_POINT('',(-0.00425,0.00425,0.003));
#576=CARTESIAN_POINT('',(-0.00525,0.00425,0.003));
#577=CARTESIAN_POINT('',(0.,0.,0.003));
#578=CARTESIAN_POINT('',(0.,0.,0.));
#579=MECHANICAL_DESIGN_GEOMETRIC_PRESENTATION_REPRESENTATION('',(#310,#311),
#580);
#580=(
GEOMETRIC_REPRESENTATION_CONTEXT(3)
GLOBAL_UNCERTAINTY_ASSIGNED_CONTEXT((#583))
GLOBAL_UNIT_ASSIGNED_CONTEXT((#588,#587,#586))
REPRESENTATION_CONTEXT('Assembly 1','TOP_LEVEL_ASSEMBLY_PART')
);
#581=(
GEOMETRIC_REPRESENTATION_CONTEXT(3)
GLOBAL_UNCERTAINTY_ASSIGNED_CONTEXT((#584))
GLOBAL_UNIT_ASSIGNED_CONTEXT((#588,#587,#586))
REPRESENTATION_CONTEXT('Rotor','COMPONENT_PART')
);
#582=(
GEOMETRIC_REPRESENTATION_CONTEXT(3)
GLOBAL_UNCERTAINTY_ASSIGNED_CONTEXT((#585))
GLOBAL_UNIT_ASSIGNED_CONTEXT((#588,#587,#586))
REPRESENTATION_CONTEXT('Stator','COMPONENT_PART')
);
#583=UNCERTAINTY_MEASURE_WITH_UNIT(LENGTH_MEASURE(1.E-8),#588,
'DISTANCE_ACCURACY_VALUE','Maximum Tolerance applied to model');
#584=UNCERTAINTY_MEASURE_WITH_UNIT(LENGTH_MEASURE(1.E-8),#588,
'DISTANCE_ACCURACY_VALUE','Maximum Tolerance applied to model');
#585=UNCERTAINTY_MEASURE_WITH_UNIT(LENGTH_MEASURE(1.E-8),#588,
'DISTANCE_ACCURACY_VALUE','Maximum Tolerance applied to model');
#586=(
NAMED_UNIT(*)
SI_UNIT($,.STERADIAN.)
SOLID_ANGLE_UNIT()
);
#587=(
NAMED_UNIT(*)
PLANE_ANGLE_UNIT()
SI_UNIT($,.RADIAN.)
);
#588=(
LENGTH_UNIT()
NAMED_UNIT(*)
SI_UNIT($,.METRE.)
);
#589=PRODUCT_DEFINITION_SHAPE('','',#594);
#590=PRODUCT_DEFINITION_SHAPE('','',#595);
#591=PRODUCT_DEFINITION_SHAPE(' ','NAUO PRDDFN',#12);
#592=PRODUCT_DEFINITION_SHAPE('','',#596);
#593=PRODUCT_DEFINITION_SHAPE(' ','NAUO PRDDFN',#13);
#594=PRODUCT_DEFINITION('','',#600,#597);
#595=PRODUCT_DEFINITION('','',#601,#598);
#596=PRODUCT_DEFINITION('','',#602,#599);
#597=PRODUCT_DEFINITION_CONTEXT('',#616,'design');
#598=PRODUCT_DEFINITION_CONTEXT('',#616,'design');
#599=PRODUCT_DEFINITION_CONTEXT('',#616,'design');
#600=PRODUCT_DEFINITION_FORMATION_WITH_SPECIFIED_SOURCE('','',#606,
 .NOT_KNOWN.);
#601=PRODUCT_DEFINITION_FORMATION_WITH_SPECIFIED_SOURCE('','',#607,
 .NOT_KNOWN.);
#602=PRODUCT_DEFINITION_FORMATION_WITH_SPECIFIED_SOURCE('','',#608,
 .NOT_KNOWN.);
#603=PRODUCT_RELATED_PRODUCT_CATEGORY('','',(#606));
#604=PRODUCT_RELATED_PRODUCT_CATEGORY('','',(#607));
#605=PRODUCT_RELATED_PRODUCT_CATEGORY('','',(#608));
#606=PRODUCT('Assembly 1','Assembly 1','Assembly 1',(#612));
#607=PRODUCT('Rotor','Rotor','Rotor',(#613));
#608=PRODUCT('Stator','Stator','Stator',(#614));
#609=PRODUCT_CATEGORY('','');
#610=PRODUCT_CATEGORY('','');
#611=PRODUCT_CATEGORY('','');
#612=PRODUCT_CONTEXT('',#616,'mechanical');
#613=PRODUCT_CONTEXT('',#616,'mechanical');
#614=PRODUCT_CONTEXT('',#616,'mechanical');
#615=APPLICATION_PROTOCOL_DEFINITION('international standard',
'ap242_managed_model_based_3d_engineering',2020,#616);
#616=APPLICATION_CONTEXT('managed model based 3d engineering');
ENDSEC;
END-ISO-10303-21;
